<svg width="341" height="100" viewBox="0 0 341 100" fill="none" xmlns="http://www.w3.org/2000/svg">
<path d="M120.68 0.0200195L91.0499 76.86H80.8499L51.8398 0.0200195H62.0499L84.4198 60.41C84.7498 61.27 85.0398 62.14 85.2798 63.04C85.5198 63.93 85.7698 64.9 86.0298 65.93H86.2498C86.6598 64.72 86.9898 63.72 87.2498 62.96C87.5098 62.19 87.8298 61.31 88.1998 60.31L110.68 0.030014H120.68V0.0200195Z" fill="black"/>
<path d="M195.2 76.86H183.71L142.539 15.61C141.939 14.75 141.519 14.14 141.259 13.76C140.999 13.38 140.649 12.86 140.199 12.18H139.869C139.939 12.9 139.999 14.01 140.039 15.53C140.079 17.05 140.1 18.99 140.1 21.34V76.85H130.729V0.00999451H142.889L182.949 60.29C183.659 61.36 184.2 62.21 184.57 62.83C184.94 63.45 185.37 64.18 185.85 65H186.07C185.99 63.93 185.939 62.48 185.899 60.66C185.859 58.84 185.839 56.66 185.839 54.12V0H195.209V76.86H195.2Z" fill="black"/>
<path d="M214.61 76.87H205.24V0.0300293H214.61V76.87Z" fill="black"/>
<path d="M41.8998 0.0100098H1.25977V9.48001H41.8998V0.0100098Z" fill="black"/>
<path d="M41.8998 32.97H1.25977V42.44H41.8998V32.97Z" fill="black"/>
<path d="M265.37 34.3301H265.35V43.8001H265.37V34.3301Z" fill="black"/>
<path d="M336.72 0.28006L311.38 48.5901L310.93 49.4501V76.8701H301.46V50.0601L301.29 49.7401L300.69 48.5801L275.35 0.28006L275.77 0.0600586H285.92L304.9 36.2301L306.03 38.3901L307.16 36.2301L326.14 0.0600586H336.3L336.72 0.28006Z" fill="black"/>
<path d="M265.35 0.0100098V76.85H255.88V43.8H224.73V34.33H255.88V9.48001H224.71V0.0100098H265.35Z" fill="black"/>
<path d="M41.8998 67.3801H1.25977V76.8501H41.8998V67.3801Z" fill="black"/>
<g opacity="0.5">
<path d="M6.09 99.1699C5.71 99.3499 5.34 99.4799 4.98 99.5599C4.62 99.6399 4.23 99.6799 3.81 99.6799C2.63 99.6799 1.7 99.3099 1.02 98.5799C0.339997 97.8499 0 96.8899 0 95.6899C0 94.3899 0.379997 93.3499 1.13 92.5699C1.88 91.7899 2.86 91.3999 4.06 91.3999C4.43 91.3999 4.77 91.4299 5.09 91.4999C5.41 91.5599 5.74 91.6699 6.07 91.8199L5.76 92.5399C5.47 92.4099 5.19 92.3199 4.92 92.2699C4.65 92.2099 4.35 92.1899 4.04 92.1899C3.1 92.1899 2.34 92.4999 1.77 93.1199C1.2 93.7399 0.910004 94.5799 0.910004 95.6399C0.910004 96.6399 1.18 97.4399 1.73 98.0199C2.27 98.6099 2.99 98.8999 3.88 98.8999C4.2 98.8999 4.52 98.8599 4.82 98.7899C5.13 98.7199 5.44 98.6099 5.75 98.4499L6.09 99.1699Z" fill="black"/>
<path d="M29.2298 99.5498H28.2098L26.9298 97.2698C26.6898 96.8298 26.4698 96.5498 26.2698 96.4098C26.0698 96.2698 25.8298 96.1998 25.5498 96.2098H24.6298V99.5498H23.7598V91.5498H26.0998C26.7998 91.5498 27.3798 91.7298 27.8398 92.0998C28.2998 92.4698 28.5198 92.9998 28.5198 93.6998C28.5198 94.2598 28.3698 94.7398 28.0698 95.1198C27.7698 95.5098 27.3498 95.7798 26.8198 95.9298V95.9498C26.9898 96.0398 27.1498 96.1598 27.2898 96.2998C27.4298 96.4398 27.5798 96.6398 27.7298 96.8998L29.2298 99.5498ZM24.6198 92.3198V95.4298H25.9098C26.4098 95.4298 26.8098 95.2798 27.1298 94.9798C27.4498 94.6798 27.6098 94.2798 27.6098 93.7798C27.6098 93.3298 27.4698 92.9698 27.1898 92.7098C26.9098 92.4498 26.4998 92.3198 25.9598 92.3198H24.6198Z" fill="black"/>
<path d="M45.7598 99.5498L48.8098 91.5498H49.6998L52.7598 99.5498H51.7898L50.9698 97.3298H47.5098L46.7198 99.5498H45.7598ZM47.7998 96.5598H50.6898L49.3898 93.0198C49.3598 92.9498 49.3298 92.8698 49.3098 92.7698C49.2898 92.6798 49.2698 92.5698 49.2498 92.4598H49.2298C49.2098 92.5798 49.1798 92.6798 49.1598 92.7698C49.1398 92.8598 49.1098 92.9398 49.0798 93.0098L47.7998 96.5598Z" fill="black"/>
<path d="M74.1096 92.3198H70.9696V95.1898H73.8696V95.9698H70.9696V99.5498H70.0996V91.5498H74.0996V92.3198H74.1096Z" fill="black"/>
<path d="M96.4702 92.32H94.1602V99.54H93.3002V92.32H90.9902V91.54H96.4802V92.32H96.4702Z" fill="black"/>
<path d="M118.59 92.32H116.28V99.54H115.42V92.32H113.11V91.54H118.6V92.32H118.59Z" fill="black"/>
<path d="M141.98 99.5498H141.12V95.8598H136.88V99.5498H136.01V91.5498H136.88V95.0898H141.12V91.5498H141.98V99.5498Z" fill="black"/>
<path d="M164.39 99.5498H160.21V91.5498H164.21V92.3298H161.07V95.1098H163.98V95.8898H161.07V98.7898H164.38V99.5498H164.39Z" fill="black"/>
<path d="M190.15 99.5498H189.3V94.1198C189.3 93.9498 189.31 93.7398 189.32 93.4898C189.33 93.2398 189.35 92.9698 189.38 92.6598H189.35C189.3 92.8298 189.26 92.9898 189.22 93.1098C189.18 93.2398 189.14 93.3398 189.1 93.4198L186.36 99.5498H185.94L183.21 93.4598C183.17 93.3698 183.12 93.2598 183.08 93.1198C183.04 92.9798 183 92.8298 182.96 92.6498H182.93C182.95 92.8198 182.96 93.0298 182.97 93.2698C182.98 93.5098 182.98 93.7898 182.98 94.0998V99.5498H182.14V91.5498H183.22L185.8 97.3398C185.88 97.5098 185.95 97.6798 186 97.8198C186.06 97.9698 186.1 98.0998 186.13 98.2298H186.16C186.23 98.0298 186.29 97.8498 186.35 97.6998C186.41 97.5498 186.46 97.4198 186.5 97.3098L189.1 91.5498H190.14V99.5498H190.15Z" fill="black"/>
<path d="M211.62 99.6799C210.49 99.6799 209.58 99.3099 208.9 98.5599C208.22 97.8099 207.88 96.8399 207.88 95.6399C207.88 94.3599 208.23 93.3399 208.92 92.5699C209.62 91.7999 210.57 91.4199 211.77 91.4199C212.87 91.4199 213.76 91.7899 214.43 92.5299C215.11 93.2699 215.44 94.2499 215.44 95.4499C215.44 96.7599 215.09 97.7899 214.4 98.5499C213.71 99.2999 212.78 99.6799 211.62 99.6799ZM211.63 98.9099C212.53 98.9099 213.24 98.6199 213.76 98.0299C214.28 97.4399 214.54 96.6199 214.54 95.5599C214.54 94.4999 214.29 93.6699 213.78 93.0799C213.27 92.4899 212.58 92.1999 211.69 92.1999C210.83 92.1999 210.13 92.5099 209.59 93.1299C209.05 93.7499 208.78 94.5599 208.78 95.5699C208.78 96.5799 209.04 97.3899 209.56 97.9999C210.09 98.5999 210.78 98.9099 211.63 98.9099Z" fill="black"/>
<path d="M241.18 99.5498H240.33V94.1198C240.33 93.9498 240.33 93.7398 240.35 93.4898C240.36 93.2398 240.38 92.9698 240.41 92.6598H240.38C240.33 92.8298 240.29 92.9898 240.25 93.1098C240.21 93.2398 240.17 93.3398 240.13 93.4198L237.38 99.5498H236.96L234.23 93.4598C234.19 93.3698 234.14 93.2598 234.1 93.1198C234.06 92.9798 234.02 92.8298 233.98 92.6498H233.95C233.97 92.8198 233.98 93.0298 233.99 93.2698C234 93.5098 234 93.7898 234 94.0998V99.5498H233.16V91.5498H234.25L236.83 97.3398C236.91 97.5098 236.98 97.6798 237.03 97.8198C237.09 97.9698 237.13 98.0998 237.16 98.2298H237.19C237.26 98.0298 237.32 97.8498 237.38 97.6998C237.44 97.5498 237.49 97.4198 237.53 97.3098L240.13 91.5498H241.17V99.5498H241.18Z" fill="black"/>
<path d="M263.58 99.5498H259.4V91.5498H263.4V92.3298H260.26V95.1098H263.17V95.8898H260.26V98.7898H263.58V99.5498Z" fill="black"/>
<path d="M287.7 99.55H286.74L282.47 93.2C282.42 93.12 282.37 93.04 282.32 92.95C282.27 92.87 282.23 92.78 282.19 92.68H282.16C282.17 92.76 282.18 92.87 282.19 93.02C282.2 93.17 282.2 93.36 282.2 93.58V99.54H281.34V91.54H282.37L286.55 97.8C286.62 97.92 286.69 98.02 286.75 98.11C286.81 98.2 286.85 98.28 286.89 98.34H286.91C286.89 98.22 286.88 98.08 286.87 97.91C286.86 97.74 286.86 97.54 286.86 97.31V91.55H287.72V99.55H287.7Z" fill="black"/>
<path d="M310.62 92.32H308.31V99.54H307.45V92.32H305.14V91.54H310.63V92.32H310.62Z" fill="black"/>
</g>
</svg>
