<svg width="341" height="100" viewBox="0 0 341 100" fill="none" xmlns="http://www.w3.org/2000/svg">
<path d="M120.68 0.0100098L91.0499 76.85H80.8499L51.8398 0.0100098H62.0499L84.4198 60.4C84.7498 61.26 85.0398 62.13 85.2798 63.03C85.5198 63.92 85.7698 64.89 86.0298 65.92H86.2498C86.6598 64.71 86.9898 63.71 87.2498 62.95C87.5098 62.18 87.8298 61.3 88.1998 60.3L110.68 0.0200043H120.68V0.0100098Z" fill="white"/>
<path d="M195.2 76.85H183.71L142.539 15.6C141.939 14.74 141.519 14.13 141.259 13.75C140.999 13.37 140.649 12.85 140.199 12.17H139.869C139.939 12.89 139.999 14 140.039 15.52C140.079 17.04 140.1 18.98 140.1 21.33V76.84H130.729V0H142.889L182.949 60.28C183.659 61.35 184.2 62.2 184.57 62.83C184.94 63.45 185.37 64.18 185.85 65H186.07C185.99 63.93 185.939 62.48 185.899 60.66C185.859 58.84 185.85 56.66 185.85 54.12V0H195.219V76.85H195.2Z" fill="white"/>
<path d="M214.61 76.87H205.24V0.0300293H214.61V76.87Z" fill="white"/>
<path d="M41.8998 0H1.25977V9.47H41.8998V0Z" fill="white"/>
<path d="M41.8998 32.96H1.25977V42.43H41.8998V32.96Z" fill="white"/>
<path d="M265.379 34.3201H265.359V43.7901H265.379V34.3201Z" fill="white"/>
<path d="M336.729 0.27005L311.389 48.58L310.939 49.44V76.86H301.469V50.05L301.299 49.7301L300.699 48.5701L275.359 0.27005L275.779 0.0500488H285.929L304.909 36.22L306.039 38.3801L307.169 36.22L326.149 0.0500488H336.309L336.729 0.27005Z" fill="white"/>
<path d="M265.36 0V76.84H255.89V43.79H224.74V34.32H255.89V9.47H224.72V0H265.36Z" fill="white"/>
<path d="M41.8998 67.3701H1.25977V76.8401H41.8998V67.3701Z" fill="white"/>
<g opacity="0.5">
<path d="M6.09 99.1602C5.71 99.3402 5.34 99.4701 4.98 99.5501C4.62 99.6301 4.23 99.6701 3.81 99.6701C2.63 99.6701 1.7 99.3001 1.02 98.5701C0.339997 97.8401 0 96.8801 0 95.6801C0 94.3801 0.379997 93.3402 1.13 92.5602C1.88 91.7802 2.86 91.3901 4.06 91.3901C4.43 91.3901 4.77 91.4201 5.09 91.4901C5.41 91.5601 5.74 91.6602 6.07 91.8102L5.76 92.5302C5.47 92.4002 5.19 92.3101 4.92 92.2601C4.65 92.2001 4.35 92.1801 4.04 92.1801C3.1 92.1801 2.34 92.4901 1.77 93.1101C1.2 93.7301 0.910004 94.5702 0.910004 95.6302C0.910004 96.6302 1.18 97.4301 1.73 98.0101C2.27 98.6001 2.99 98.8901 3.88 98.8901C4.2 98.8901 4.52 98.8502 4.82 98.7802C5.13 98.7102 5.44 98.6002 5.75 98.4402L6.09 99.1602Z" fill="white"/>
<path d="M29.2298 99.54H28.2098L26.9298 97.26C26.6898 96.83 26.4698 96.5401 26.2698 96.4001C26.0698 96.2601 25.8298 96.2 25.5498 96.2H24.6298V99.54H23.7598V91.54H26.0998C26.7998 91.54 27.3798 91.7201 27.8398 92.0901C28.2998 92.4601 28.5198 92.9901 28.5198 93.6901C28.5198 94.2501 28.3698 94.73 28.0698 95.11C27.7698 95.5 27.3498 95.77 26.8198 95.92V95.9401C26.9898 96.0301 27.1498 96.15 27.2898 96.29C27.4298 96.43 27.5798 96.63 27.7298 96.89L29.2298 99.54ZM24.6198 92.3101V95.42H25.9098C26.4098 95.42 26.8098 95.2701 27.1298 94.9701C27.4498 94.6701 27.6098 94.2701 27.6098 93.7701C27.6098 93.3201 27.4698 92.97 27.1898 92.7C26.9098 92.44 26.4998 92.3101 25.9598 92.3101H24.6198Z" fill="white"/>
<path d="M45.7695 99.54L48.8195 91.54H49.7095L52.7695 99.54H51.7995L50.9795 97.32H47.5195L46.7295 99.54H45.7695ZM47.7995 96.55H50.6895L49.3895 93.01C49.3595 92.94 49.3295 92.86 49.3095 92.76C49.2895 92.66 49.2695 92.56 49.2495 92.45H49.2295C49.2095 92.57 49.1795 92.67 49.1595 92.76C49.1395 92.85 49.1095 92.9301 49.0795 93.0001L47.7995 96.55Z" fill="white"/>
<path d="M74.1096 92.3101H70.9696V95.1801H73.8696V95.9601H70.9696V99.54H70.0996V91.54H74.0996V92.3101H74.1096Z" fill="white"/>
<path d="M96.4702 92.3103H94.1602V99.5403H93.3002V92.3103H90.9902V91.5303H96.4802V92.3103H96.4702Z" fill="white"/>
<path d="M118.59 92.3103H116.28V99.5403H115.42V92.3103H113.11V91.5303H118.6V92.3103H118.59Z" fill="white"/>
<path d="M141.98 99.54H141.12V95.8501H136.88V99.54H136.01V91.54H136.88V95.08H141.12V91.54H141.98V99.54Z" fill="white"/>
<path d="M164.39 99.54H160.21V91.54H164.21V92.32H161.07V95.1001H163.98V95.8801H161.07V98.7801H164.38V99.54H164.39Z" fill="white"/>
<path d="M190.15 99.5403H189.3V94.1103C189.3 93.9403 189.3 93.7303 189.32 93.4803C189.33 93.2303 189.35 92.9603 189.38 92.6503H189.35C189.3 92.8203 189.26 92.9803 189.22 93.1003C189.18 93.2303 189.14 93.3303 189.1 93.4103L186.35 99.5403H185.93L183.2 93.4503C183.16 93.3603 183.11 93.2503 183.07 93.1103C183.03 92.9703 182.99 92.8203 182.95 92.6403H182.92C182.94 92.8103 182.95 93.0203 182.96 93.2603C182.97 93.5003 182.97 93.7803 182.97 94.0903V99.5403H182.13V91.5403H183.21L185.79 97.3303C185.87 97.5003 185.94 97.6603 185.99 97.8103C186.05 97.9603 186.09 98.0903 186.12 98.2103H186.15C186.22 98.0103 186.28 97.8303 186.34 97.6803C186.4 97.5303 186.45 97.4003 186.49 97.2903L189.09 91.5303H190.13V99.5403H190.15Z" fill="white"/>
<path d="M211.62 99.6701C210.49 99.6701 209.58 99.2901 208.9 98.5501C208.22 97.8001 207.88 96.8302 207.88 95.6302C207.88 94.3502 208.23 93.3302 208.93 92.5602C209.63 91.7902 210.58 91.4102 211.77 91.4102C212.87 91.4102 213.76 91.7801 214.43 92.5201C215.11 93.2601 215.44 94.2402 215.44 95.4402C215.44 96.7502 215.09 97.7801 214.4 98.5401C213.71 99.3001 212.78 99.6701 211.62 99.6701ZM211.63 98.9001C212.53 98.9001 213.24 98.6101 213.76 98.0201C214.28 97.4301 214.54 96.6101 214.54 95.5501C214.54 94.4901 214.29 93.6601 213.78 93.0701C213.28 92.4801 212.58 92.1902 211.69 92.1902C210.83 92.1902 210.13 92.5001 209.59 93.1201C209.05 93.7401 208.78 94.5502 208.78 95.5602C208.78 96.5702 209.04 97.3801 209.56 97.9901C210.09 98.5901 210.78 98.9001 211.63 98.9001Z" fill="white"/>
<path d="M241.18 99.5403H240.33V94.1103C240.33 93.9403 240.34 93.7303 240.35 93.4803C240.36 93.2303 240.38 92.9603 240.41 92.6503H240.38C240.33 92.8203 240.29 92.9803 240.25 93.1003C240.21 93.2303 240.17 93.3303 240.13 93.4103L237.39 99.5403H236.97L234.24 93.4503C234.2 93.3603 234.15 93.2503 234.12 93.1103C234.09 92.9703 234.04 92.8203 234 92.6403H233.97C233.99 92.8103 234 93.0203 234.01 93.2603C234.02 93.5003 234.02 93.7803 234.02 94.0903V99.5403H233.18V91.5403H234.25L236.83 97.3303C236.91 97.5003 236.98 97.6603 237.03 97.8103C237.09 97.9603 237.13 98.0903 237.16 98.2103H237.19C237.26 98.0103 237.32 97.8303 237.38 97.6803C237.44 97.5303 237.49 97.4003 237.53 97.2903L240.13 91.5303H241.17V99.5403H241.18Z" fill="white"/>
<path d="M263.58 99.54H259.4V91.54H263.4V92.32H260.26V95.1001H263.17V95.8801H260.26V98.7801H263.57V99.54H263.58Z" fill="white"/>
<path d="M287.7 99.5403H286.74L282.47 93.1903C282.42 93.1103 282.37 93.0303 282.32 92.9403C282.27 92.8603 282.23 92.7703 282.19 92.6703H282.16C282.17 92.7503 282.18 92.8603 282.19 93.0103C282.19 93.1603 282.2 93.3503 282.2 93.5703V99.5303H281.34V91.5303H282.37L286.55 97.7903C286.63 97.9103 286.69 98.0103 286.75 98.1003C286.81 98.1903 286.85 98.2703 286.89 98.3303H286.91C286.89 98.2103 286.88 98.0703 286.87 97.9003C286.86 97.7303 286.86 97.5303 286.86 97.3003V91.5403H287.72V99.5403H287.7Z" fill="white"/>
<path d="M310.62 92.3103H308.31V99.5403H307.45V92.3103H305.14V91.5303H310.63V92.3103H310.62Z" fill="white"/>
</g>
</svg>
