<svg width="341" height="100" viewBox="0 0 341 100" fill="none" xmlns="http://www.w3.org/2000/svg">
<path d="M120.68 0.0100098L91.0501 76.85H80.8401L51.8301 0.0100098H62.0401L84.4101 60.4C84.7401 61.26 85.0301 62.13 85.2701 63.03C85.5101 63.92 85.7601 64.89 86.0201 65.92H86.2401C86.6501 64.71 86.9801 63.71 87.2401 62.95C87.5001 62.18 87.8201 61.3 88.1901 60.3L110.67 0.0200043H120.68V0.0100098Z" fill="#533C56"/>
<path d="M195.2 76.85H183.71L142.54 15.6C141.94 14.74 141.52 14.13 141.26 13.75C141 13.37 140.65 12.85 140.2 12.17H139.87C139.94 12.89 140 14 140.04 15.52C140.08 17.04 140.1 18.98 140.1 21.33V76.84H130.73V0H142.87L182.93 60.28C183.64 61.35 184.18 62.2 184.55 62.83C184.92 63.45 185.35 64.18 185.83 65H186.05C185.97 63.93 185.92 62.48 185.88 60.66C185.84 58.84 185.82 56.66 185.82 54.12V0H195.19V76.85H195.2Z" fill="#533C56"/>
<path d="M214.61 76.86H205.24V0.0200195H214.61V76.86Z" fill="#533C56"/>
<path d="M41.8998 0H1.25977V9.47H41.8998V0Z" fill="#533C56"/>
<path d="M41.8998 32.96H1.25977V42.43H41.8998V32.96Z" fill="#533C56"/>
<path d="M265.379 34.3201H265.359V43.7901H265.379V34.3201Z" fill="#533C56"/>
<path d="M336.729 0.27005L311.389 48.58L310.939 49.4401V76.86H301.469V50.05L301.299 49.73L300.699 48.57L275.359 0.27005L275.779 0.0500488H285.929L304.909 36.22L306.039 38.3801L307.169 36.22L326.149 0.0500488H336.309L336.729 0.27005Z" fill="#99707E"/>
<path d="M265.36 0V76.84H255.89V43.79H224.74V34.32H255.89V9.47H224.72V0H265.36Z" fill="#99707E"/>
<path d="M41.8998 67.3701H1.25977V76.8401H41.8998V67.3701Z" fill="#533C56"/>
<g opacity="0.5">
<path d="M6.09 99.1599C5.71 99.3399 5.34 99.4699 4.98 99.5499C4.62 99.6299 4.23001 99.6699 3.81001 99.6699C2.63001 99.6699 1.7 99.2999 1.02 98.5699C0.340004 97.8399 0 96.8799 0 95.6799C0 94.3799 0.380005 93.3399 1.13 92.5599C1.88 91.7799 2.86001 91.3899 4.06001 91.3899C4.43001 91.3899 4.77 91.4199 5.09 91.4899C5.41 91.5599 5.74 91.6599 6.07 91.8099L5.76 92.5299C5.47 92.3999 5.19001 92.3099 4.92001 92.2599C4.65001 92.1999 4.35 92.1799 4.04 92.1799C3.1 92.1799 2.34 92.4899 1.77 93.1099C1.2 93.7299 0.910004 94.5699 0.910004 95.6299C0.910004 96.6299 1.18 97.4299 1.73 98.0099C2.27 98.5999 2.99001 98.8899 3.88 98.8899C4.20001 98.8899 4.52 98.8499 4.82 98.7799C5.13 98.7099 5.44 98.5999 5.75 98.4399L6.09 99.1599Z" fill="#414042"/>
<path d="M29.2298 99.5398H28.2098L26.9298 97.2598C26.6898 96.8298 26.4698 96.5398 26.2698 96.3998C26.0698 96.2598 25.8298 96.1998 25.5498 96.1998H24.6298V99.5398H23.7598V91.5398H26.0998C26.7998 91.5398 27.3798 91.7198 27.8398 92.0898C28.2998 92.4598 28.5198 92.9898 28.5198 93.6898C28.5198 94.2498 28.3698 94.7298 28.0698 95.1098C27.7698 95.4998 27.3498 95.7698 26.8198 95.9198V95.9398C26.9898 96.0298 27.1498 96.1498 27.2898 96.2898C27.4298 96.4298 27.5798 96.6298 27.7298 96.8898L29.2298 99.5398ZM24.6298 92.3098V95.4198H25.9198C26.4198 95.4198 26.8198 95.2698 27.1398 94.9698C27.4598 94.6698 27.6198 94.2698 27.6198 93.7698C27.6198 93.3198 27.4798 92.9698 27.1998 92.6998C26.9198 92.4398 26.5098 92.3098 25.9698 92.3098H24.6298Z" fill="#414042"/>
<path d="M45.7695 99.5398L48.8195 91.5398H49.7095L52.7695 99.5398H51.7995L50.9795 97.3198H47.5195L46.7295 99.5398H45.7695ZM47.7995 96.5498H50.6895L49.3895 93.0098C49.3595 92.9398 49.3295 92.8598 49.3095 92.7598C49.2895 92.6598 49.2695 92.5598 49.2495 92.4498H49.2295C49.2095 92.5698 49.1795 92.6698 49.1595 92.7598C49.1395 92.8498 49.1095 92.9298 49.0795 92.9998L47.7995 96.5498Z" fill="#414042"/>
<path d="M74.1203 92.3098H70.9803V95.1798H73.8803V95.9498H70.9803V99.5298H70.1104V91.5298H74.1104V92.3098H74.1203Z" fill="#414042"/>
<path d="M96.48 92.3098H94.17V99.5398H93.31V92.3098H91V91.5298H96.49V92.3098H96.48Z" fill="#414042"/>
<path d="M118.6 92.3098H116.29V99.5398H115.43V92.3098H113.12V91.5298H118.61V92.3098H118.6Z" fill="#414042"/>
<path d="M141.98 99.5398H141.12V95.8498H136.88V99.5398H136.01V91.5398H136.88V95.0798H141.12V91.5398H141.98V99.5398Z" fill="#414042"/>
<path d="M164.39 99.5398H160.21V91.5398H164.21V92.3198H161.07V95.0998H163.98V95.8798H161.07V98.7798H164.38V99.5398H164.39Z" fill="#414042"/>
<path d="M190.15 99.5398H189.3V94.1098C189.3 93.9398 189.31 93.7298 189.32 93.4798C189.33 93.2298 189.35 92.9598 189.38 92.6498H189.35C189.3 92.8198 189.26 92.9798 189.22 93.0998C189.18 93.2298 189.14 93.3298 189.1 93.4098L186.36 99.5398H185.94L183.21 93.4498C183.17 93.3598 183.12 93.2498 183.09 93.1098C183.06 92.9698 183.01 92.8198 182.97 92.6398H182.94C182.96 92.8098 182.97 93.0198 182.98 93.2598C182.99 93.4998 182.99 93.7798 182.99 94.0898V99.5398H182.15V91.5398H183.23L185.81 97.3298C185.89 97.4998 185.96 97.6598 186.01 97.8098C186.07 97.9598 186.11 98.0898 186.14 98.2098H186.17C186.24 98.0098 186.3 97.8298 186.36 97.6798C186.42 97.5298 186.47 97.3998 186.51 97.2898L189.11 91.5298H190.15V99.5398Z" fill="#414042"/>
<path d="M211.63 99.6699C210.5 99.6699 209.59 99.2899 208.91 98.5499C208.23 97.7999 207.89 96.8299 207.89 95.6299C207.89 94.3499 208.24 93.3299 208.93 92.5599C209.63 91.7899 210.58 91.4099 211.78 91.4099C212.88 91.4099 213.77 91.7799 214.44 92.5199C215.12 93.2599 215.45 94.2399 215.45 95.4399C215.45 96.7499 215.1 97.7799 214.41 98.5399C213.71 99.2899 212.79 99.6699 211.63 99.6699ZM211.63 98.8999C212.53 98.8999 213.24 98.6099 213.76 98.0199C214.28 97.4299 214.54 96.6099 214.54 95.5499C214.54 94.4899 214.29 93.6599 213.78 93.0699C213.27 92.4799 212.58 92.1899 211.69 92.1899C210.83 92.1899 210.13 92.4999 209.59 93.1199C209.05 93.7399 208.78 94.5499 208.78 95.5599C208.78 96.5699 209.04 97.3799 209.56 97.9899C210.09 98.5899 210.78 98.8999 211.63 98.8999Z" fill="#414042"/>
<path d="M241.19 99.5398H240.34V94.1098C240.34 93.9398 240.34 93.7298 240.36 93.4798C240.37 93.2298 240.39 92.9598 240.42 92.6498H240.39C240.34 92.8198 240.3 92.9798 240.26 93.0998C240.22 93.2298 240.18 93.3298 240.14 93.4098L237.39 99.5398H236.97L234.24 93.4498C234.2 93.3598 234.15 93.2498 234.11 93.1098C234.07 92.9698 234.03 92.8198 233.99 92.6398H233.96C233.98 92.8098 233.99 93.0198 234 93.2598C234.01 93.4998 234.01 93.7798 234.01 94.0898V99.5398H233.17V91.5398H234.25L236.83 97.3298C236.91 97.4998 236.98 97.6598 237.03 97.8098C237.09 97.9598 237.13 98.0898 237.16 98.2098H237.19C237.26 98.0098 237.32 97.8298 237.38 97.6798C237.44 97.5298 237.49 97.3998 237.53 97.2898L240.13 91.5298H241.17V99.5398H241.19Z" fill="#414042"/>
<path d="M263.59 99.5398H259.41V91.5398H263.41V92.3198H260.27V95.0998H263.18V95.8798H260.27V98.7798H263.59V99.5398Z" fill="#414042"/>
<path d="M287.7 99.5398H286.74L282.47 93.1898C282.42 93.1098 282.37 93.0298 282.32 92.9398C282.27 92.8598 282.23 92.7698 282.19 92.6698H282.16C282.17 92.7498 282.18 92.8598 282.19 93.0098C282.2 93.1598 282.2 93.3498 282.2 93.5698V99.5298H281.34V91.5298H282.37L286.55 97.7898C286.62 97.9098 286.69 98.0098 286.75 98.0998C286.81 98.1898 286.85 98.2698 286.89 98.3298H286.91C286.89 98.2098 286.88 98.0698 286.87 97.8998C286.86 97.7298 286.86 97.5298 286.86 97.2998V91.5398H287.72V99.5398H287.7Z" fill="#414042"/>
<path d="M310.62 92.3098H308.31V99.5398H307.45V92.3098H305.14V91.5298H310.63V92.3098H310.62Z" fill="#414042"/>
</g>
</svg>
