<svg width="340" height="77" viewBox="0 0 340 77" fill="none" xmlns="http://www.w3.org/2000/svg">
<path d="M119.42 0.0100098L89.7903 76.85H79.5803L50.5703 0.0100098H60.7803L83.1503 60.4C83.4803 61.26 83.7703 62.13 84.0103 63.03C84.2503 63.92 84.5003 64.89 84.7603 65.92H84.9803C85.3903 64.71 85.7203 63.71 85.9803 62.95C86.2403 62.18 86.5603 61.3 86.9303 60.3L109.41 0.0200043H119.42V0.0100098Z" fill="white"/>
<path d="M193.941 76.85H182.451L141.281 15.6C140.681 14.74 140.261 14.13 140.001 13.75C139.741 13.37 139.391 12.85 138.941 12.17H138.611C138.681 12.89 138.741 14 138.781 15.52C138.821 17.04 138.841 18.98 138.841 21.33V76.84H129.471V0H141.631L181.691 60.28C182.401 61.35 182.941 62.2 183.311 62.83C183.681 63.45 184.111 64.18 184.591 65H184.811C184.731 63.93 184.681 62.48 184.641 60.66C184.601 58.84 184.581 56.66 184.581 54.12V0H193.951V76.85H193.941Z" fill="white"/>
<path d="M213.35 76.87H203.98V0.0300293H213.35V76.87Z" fill="white"/>
<path d="M40.64 0H0V9.47H40.64V0Z" fill="white"/>
<path d="M40.64 32.96H0V42.43H40.64V32.96Z" fill="white"/>
<path d="M264.12 34.3201H264.1V43.7901H264.12V34.3201Z" fill="white"/>
<path d="M335.47 0.27005L310.13 48.58L309.68 49.44V76.86H300.21V50.05L300.04 49.7301L299.44 48.5701L274.1 0.27005L274.52 0.0500488H284.67L303.65 36.22L304.78 38.3801L305.91 36.22L324.89 0.0500488H335.05L335.47 0.27005Z" fill="white"/>
<path d="M264.1 0V76.84H254.63V43.79H223.48V34.32H254.63V9.47H223.46V0H264.1Z" fill="white"/>
<path d="M40.64 67.3701H0V76.8401H40.64V67.3701Z" fill="white"/>
</svg>
