<svg width="198" height="34" viewBox="0 0 198 34" fill="none" xmlns="http://www.w3.org/2000/svg">
<path d="M0 0H119.916L144.456 34H0V0Z" fill="#533C56"/>
<path d="M17.1481 23.112C16.0815 23.112 15.1001 22.8613 14.2041 22.36C13.3188 21.8587 12.6148 21.1653 12.0921 20.28C11.5695 19.3947 11.3081 18.3973 11.3081 17.288C11.3081 16.1787 11.5695 15.1813 12.0921 14.296C12.6148 13.4107 13.3188 12.7227 14.2041 12.232C15.1001 11.7307 16.0815 11.48 17.1481 11.48C18.2148 11.48 19.1908 11.7307 20.0761 12.232C20.9615 12.7227 21.6601 13.4107 22.1721 14.296C22.6948 15.1813 22.9561 16.1787 22.9561 17.288C22.9561 18.3973 22.6948 19.3947 22.1721 20.28C21.6601 21.1653 20.9561 21.8587 20.0601 22.36C19.1748 22.8613 18.2041 23.112 17.1481 23.112ZM17.1481 19.8C17.8521 19.8 18.3961 19.576 18.7801 19.128C19.1641 18.6693 19.3561 18.056 19.3561 17.288C19.3561 16.5093 19.1641 15.896 18.7801 15.448C18.3961 14.9893 17.8521 14.76 17.1481 14.76C16.4335 14.76 15.8841 14.9893 15.5001 15.448C15.1161 15.896 14.9241 16.5093 14.9241 17.288C14.9241 18.056 15.1161 18.6693 15.5001 19.128C15.8841 19.576 16.4335 19.8 17.1481 19.8ZM33.7895 13.976V23H30.2375V21.624C29.9602 22.0507 29.5868 22.3973 29.1175 22.664C28.6588 22.9307 28.1095 23.064 27.4695 23.064C26.4348 23.064 25.6242 22.7173 25.0375 22.024C24.4615 21.3307 24.1735 20.392 24.1735 19.208V13.976H27.7095V18.76C27.7095 19.1867 27.8215 19.528 28.0455 19.784C28.2802 20.0293 28.5895 20.152 28.9735 20.152C29.3682 20.152 29.6775 20.0293 29.9015 19.784C30.1255 19.528 30.2375 19.1867 30.2375 18.76V13.976H33.7895ZM38.9458 15.64C39.3084 15.1173 39.7511 14.7013 40.2738 14.392C40.7964 14.072 41.3404 13.912 41.9058 13.912V17.704H40.8978C40.2258 17.704 39.7298 17.8213 39.4098 18.056C39.1004 18.2907 38.9458 18.7067 38.9458 19.304V23H35.3938V13.976H38.9458V15.64ZM59.1973 11.672V23H55.6613V17.352L53.9173 23H50.8773L49.1333 17.352V23H45.5813V11.672H49.9333L52.4293 18.472L54.8613 11.672H59.1973ZM62.592 13.256C61.9733 13.256 61.4773 13.0907 61.104 12.76C60.7307 12.4293 60.544 12.0133 60.544 11.512C60.544 11 60.7307 10.5787 61.104 10.248C61.4773 9.90667 61.9733 9.736 62.592 9.736C63.2 9.736 63.6907 9.90667 64.064 10.248C64.4373 10.5787 64.624 11 64.624 11.512C64.624 12.0133 64.4373 12.4293 64.064 12.76C63.6907 13.0907 63.2 13.256 62.592 13.256ZM64.352 13.976V23H60.8V13.976H64.352ZM69.9723 23.112C69.1189 23.112 68.3616 22.9733 67.7003 22.696C67.0496 22.4187 66.5323 22.0347 66.1483 21.544C65.7643 21.0533 65.5456 20.4987 65.4923 19.88H68.9003C68.9429 20.1467 69.0549 20.344 69.2363 20.472C69.4283 20.6 69.6683 20.664 69.9563 20.664C70.1376 20.664 70.2816 20.6267 70.3883 20.552C70.4949 20.4667 70.5483 20.3653 70.5483 20.248C70.5483 20.0453 70.4363 19.9013 70.2123 19.816C69.9883 19.7307 69.6096 19.6347 69.0763 19.528C68.4256 19.4 67.8869 19.2613 67.4603 19.112C67.0443 18.9627 66.6763 18.7067 66.3563 18.344C66.0469 17.9813 65.8923 17.48 65.8923 16.84C65.8923 16.2853 66.0363 15.784 66.3243 15.336C66.6229 14.8773 67.0603 14.52 67.6363 14.264C68.2123 13.9973 68.9109 13.864 69.7323 13.864C70.9483 13.864 71.8976 14.1627 72.5803 14.76C73.2736 15.3573 73.6896 16.136 73.8283 17.096H70.6763C70.6229 16.8507 70.5109 16.664 70.3403 16.536C70.1696 16.3973 69.9403 16.328 69.6523 16.328C69.4709 16.328 69.3323 16.3653 69.2363 16.44C69.1403 16.504 69.0923 16.6053 69.0923 16.744C69.0923 16.9253 69.2043 17.064 69.4283 17.16C69.6523 17.2453 70.0096 17.336 70.5003 17.432C71.1509 17.56 71.7003 17.704 72.1483 17.864C72.5963 18.024 72.9856 18.3013 73.3163 18.696C73.6469 19.08 73.8123 19.6133 73.8123 20.296C73.8123 20.8293 73.6576 21.3093 73.3483 21.736C73.0389 22.1627 72.5909 22.4987 72.0043 22.744C71.4283 22.9893 70.7509 23.112 69.9723 23.112ZM79.2379 23.112C78.3845 23.112 77.6272 22.9733 76.9659 22.696C76.3152 22.4187 75.7979 22.0347 75.4139 21.544C75.0299 21.0533 74.8112 20.4987 74.7579 19.88H78.1659C78.2085 20.1467 78.3205 20.344 78.5019 20.472C78.6939 20.6 78.9339 20.664 79.2219 20.664C79.4032 20.664 79.5472 20.6267 79.6539 20.552C79.7605 20.4667 79.8139 20.3653 79.8139 20.248C79.8139 20.0453 79.7019 19.9013 79.4779 19.816C79.2539 19.7307 78.8752 19.6347 78.3419 19.528C77.6912 19.4 77.1525 19.2613 76.7259 19.112C76.3099 18.9627 75.9419 18.7067 75.6219 18.344C75.3125 17.9813 75.1579 17.48 75.1579 16.84C75.1579 16.2853 75.3019 15.784 75.5899 15.336C75.8885 14.8773 76.3259 14.52 76.9019 14.264C77.4779 13.9973 78.1765 13.864 78.9979 13.864C80.2139 13.864 81.1632 14.1627 81.8459 14.76C82.5392 15.3573 82.9552 16.136 83.0939 17.096H79.9419C79.8885 16.8507 79.7765 16.664 79.6059 16.536C79.4352 16.3973 79.2059 16.328 78.9179 16.328C78.7365 16.328 78.5979 16.3653 78.5019 16.44C78.4059 16.504 78.3579 16.6053 78.3579 16.744C78.3579 16.9253 78.4699 17.064 78.6939 17.16C78.9179 17.2453 79.2752 17.336 79.7659 17.432C80.4165 17.56 80.9659 17.704 81.4139 17.864C81.8619 18.024 82.2512 18.3013 82.5819 18.696C82.9125 19.08 83.0779 19.6133 83.0779 20.296C83.0779 20.8293 82.9232 21.3093 82.6139 21.736C82.3045 22.1627 81.8565 22.4987 81.2699 22.744C80.6939 22.9893 80.0165 23.112 79.2379 23.112ZM86.2795 13.256C85.6608 13.256 85.1648 13.0907 84.7915 12.76C84.4182 12.4293 84.2315 12.0133 84.2315 11.512C84.2315 11 84.4182 10.5787 84.7915 10.248C85.1648 9.90667 85.6608 9.736 86.2795 9.736C86.8875 9.736 87.3782 9.90667 87.7515 10.248C88.1248 10.5787 88.3115 11 88.3115 11.512C88.3115 12.0133 88.1248 12.4293 87.7515 12.76C87.3782 13.0907 86.8875 13.256 86.2795 13.256ZM88.0395 13.976V23H84.4875V13.976H88.0395ZM93.9318 23.112C93.0251 23.112 92.2091 22.9253 91.4838 22.552C90.7584 22.1787 90.1878 21.6453 89.7718 20.952C89.3664 20.248 89.1638 19.4267 89.1638 18.488C89.1638 17.5493 89.3664 16.7333 89.7718 16.04C90.1878 15.336 90.7584 14.7973 91.4838 14.424C92.2091 14.0507 93.0251 13.864 93.9318 13.864C94.8384 13.864 95.6544 14.0507 96.3798 14.424C97.1051 14.7973 97.6704 15.336 98.0758 16.04C98.4918 16.7333 98.6998 17.5493 98.6998 18.488C98.6998 19.4267 98.4918 20.248 98.0758 20.952C97.6704 21.6453 97.1051 22.1787 96.3798 22.552C95.6544 22.9253 94.8384 23.112 93.9318 23.112ZM93.9318 20.04C94.2624 20.04 94.5398 19.912 94.7638 19.656C94.9878 19.3893 95.0998 19 95.0998 18.488C95.0998 17.976 94.9878 17.592 94.7638 17.336C94.5398 17.0693 94.2624 16.936 93.9318 16.936C93.6011 16.936 93.3238 17.0693 93.0998 17.336C92.8758 17.592 92.7638 17.976 92.7638 18.488C92.7638 19 92.8704 19.3893 93.0838 19.656C93.3078 19.912 93.5904 20.04 93.9318 20.04ZM106.136 13.912C107.17 13.912 107.976 14.2587 108.552 14.952C109.138 15.6453 109.432 16.584 109.432 17.768V23H105.896V18.216C105.896 17.7893 105.778 17.4533 105.544 17.208C105.32 16.952 105.016 16.824 104.632 16.824C104.237 16.824 103.928 16.952 103.704 17.208C103.48 17.4533 103.368 17.7893 103.368 18.216V23H99.8156V13.976H103.368V15.352C103.645 14.9253 104.013 14.5787 104.472 14.312C104.941 14.0453 105.496 13.912 106.136 13.912Z" fill="white"/>
<path d="M125.493 0H138.321L162.304 34H149.957L125.493 0Z" fill="#533C56"/>
<path d="M143.341 0H156.169L180.152 34H167.805L143.341 0Z" fill="#533C56"/>
<path d="M161.189 0H174.017L198 34H185.653L161.189 0Z" fill="#533C56"/>
</svg>
