<svg width="261" height="34" viewBox="0 0 261 34" fill="none" xmlns="http://www.w3.org/2000/svg">
<path d="M0 0H175.176L205 34H0V0Z" fill="#533C56"/>
<path d="M28.3119 8.672V20H24.7599V15.584H21.3839V20H17.8319V8.672H21.3839V12.752H24.7599V8.672H28.3119ZM34.198 20.112C33.2914 20.112 32.4754 19.9253 31.75 19.552C31.0247 19.1787 30.454 18.6453 30.038 17.952C29.6327 17.248 29.43 16.4267 29.43 15.488C29.43 14.5493 29.6327 13.7333 30.038 13.04C30.454 12.336 31.0247 11.7973 31.75 11.424C32.4754 11.0507 33.2914 10.864 34.198 10.864C35.1047 10.864 35.9207 11.0507 36.646 11.424C37.3714 11.7973 37.9367 12.336 38.342 13.04C38.758 13.7333 38.966 14.5493 38.966 15.488C38.966 16.4267 38.758 17.248 38.342 17.952C37.9367 18.6453 37.3714 19.1787 36.646 19.552C35.9207 19.9253 35.1047 20.112 34.198 20.112ZM34.198 17.04C34.5287 17.04 34.806 16.912 35.03 16.656C35.254 16.3893 35.366 16 35.366 15.488C35.366 14.976 35.254 14.592 35.03 14.336C34.806 14.0693 34.5287 13.936 34.198 13.936C33.8674 13.936 33.59 14.0693 33.366 14.336C33.142 14.592 33.03 14.976 33.03 15.488C33.03 16 33.1367 16.3893 33.35 16.656C33.574 16.912 33.8567 17.04 34.198 17.04ZM53.7779 10.976L51.6339 20H47.6339L46.5459 14.912L45.3939 20H41.3939L39.2659 10.976H42.7859L43.5379 16.464L44.7059 10.976H48.4979L49.7299 16.528L50.4979 10.976H53.7779ZM73.5738 8.672L70.9818 20H66.5658L65.2538 13.568L63.9418 20H59.5258L56.9338 8.672H60.7578L61.7818 15.808L63.3178 8.672H67.1898L68.7258 15.808L69.7498 8.672H73.5738ZM83.5835 15.408C83.5835 15.6533 83.5675 15.888 83.5355 16.112H77.8235C77.8769 16.8907 78.2022 17.28 78.7995 17.28C79.1835 17.28 79.4609 17.104 79.6315 16.752H83.3915C83.2635 17.392 82.9915 17.968 82.5755 18.48C82.1702 18.9813 81.6529 19.3813 81.0235 19.68C80.4049 19.968 79.7222 20.112 78.9755 20.112C78.0795 20.112 77.2795 19.9253 76.5755 19.552C75.8822 19.1787 75.3382 18.6453 74.9435 17.952C74.5595 17.248 74.3675 16.4267 74.3675 15.488C74.3675 14.5493 74.5595 13.7333 74.9435 13.04C75.3382 12.336 75.8822 11.7973 76.5755 11.424C77.2795 11.0507 78.0795 10.864 78.9755 10.864C79.8715 10.864 80.6662 11.0507 81.3595 11.424C82.0635 11.7867 82.6075 12.3093 82.9915 12.992C83.3862 13.6747 83.5835 14.48 83.5835 15.408ZM79.9835 14.56C79.9835 14.2613 79.8875 14.0373 79.6955 13.888C79.5035 13.728 79.2635 13.648 78.9755 13.648C78.3462 13.648 77.9782 13.952 77.8715 14.56H79.9835ZM91.8577 20.112C90.503 20.112 89.383 19.7973 88.4977 19.168C87.623 18.528 87.1483 17.5947 87.0737 16.368H90.8497C90.903 17.0187 91.191 17.344 91.7137 17.344C91.9057 17.344 92.0657 17.3013 92.1937 17.216C92.3323 17.12 92.4017 16.976 92.4017 16.784C92.4017 16.5173 92.2577 16.304 91.9697 16.144C91.6817 15.9733 91.2337 15.7813 90.6257 15.568C89.9003 15.312 89.2977 15.0613 88.8177 14.816C88.3483 14.5707 87.943 14.2133 87.6017 13.744C87.2603 13.2747 87.095 12.672 87.1057 11.936C87.1057 11.2 87.2923 10.576 87.6657 10.064C88.0497 9.54133 88.567 9.14667 89.2177 8.88C89.879 8.61333 90.6203 8.48 91.4417 8.48C92.8283 8.48 93.927 8.8 94.7377 9.44C95.559 10.08 95.991 10.9813 96.0337 12.144H92.2097C92.199 11.824 92.119 11.5947 91.9697 11.456C91.8203 11.3173 91.639 11.248 91.4257 11.248C91.2763 11.248 91.1537 11.3013 91.0577 11.408C90.9617 11.504 90.9137 11.6427 90.9137 11.824C90.9137 12.08 91.0523 12.2933 91.3297 12.464C91.6177 12.624 92.071 12.8213 92.6897 13.056C93.4043 13.3227 93.991 13.5787 94.4497 13.824C94.919 14.0693 95.3243 14.4107 95.6657 14.848C96.007 15.2853 96.1777 15.8347 96.1777 16.496C96.1777 17.1893 96.007 17.8133 95.6657 18.368C95.3243 18.912 94.8283 19.3387 94.1777 19.648C93.527 19.9573 92.7537 20.112 91.8577 20.112ZM103.042 16.976V20H101.698C99.223 20 97.9857 18.768 97.9857 16.304V13.936H96.8657V10.976H97.9857V8.8H101.538V10.976H103.01V13.936H101.538V16.368C101.538 16.5813 101.586 16.736 101.682 16.832C101.788 16.928 101.959 16.976 102.194 16.976H103.042ZM103.914 15.488C103.914 14.5387 104.074 13.7173 104.394 13.024C104.725 12.32 105.173 11.7867 105.738 11.424C106.304 11.0507 106.938 10.864 107.642 10.864C108.229 10.864 108.736 10.9867 109.162 11.232C109.589 11.4667 109.914 11.792 110.138 12.208V10.976H113.674V20H110.138V18.768C109.914 19.184 109.589 19.5147 109.162 19.76C108.736 19.9947 108.229 20.112 107.642 20.112C106.938 20.112 106.304 19.9307 105.738 19.568C105.173 19.1947 104.725 18.6613 104.394 17.968C104.074 17.264 103.914 16.4373 103.914 15.488ZM110.138 15.488C110.138 15.008 110.016 14.6347 109.77 14.368C109.525 14.1013 109.21 13.968 108.826 13.968C108.442 13.968 108.128 14.1013 107.882 14.368C107.637 14.6347 107.514 15.008 107.514 15.488C107.514 15.968 107.637 16.3413 107.882 16.608C108.128 16.8747 108.442 17.008 108.826 17.008C109.21 17.008 109.525 16.8747 109.77 16.608C110.016 16.3413 110.138 15.968 110.138 15.488ZM121.589 10.912C122.624 10.912 123.429 11.2587 124.005 11.952C124.592 12.6453 124.885 13.584 124.885 14.768V20H121.349V15.216C121.349 14.7893 121.232 14.4533 120.997 14.208C120.773 13.952 120.469 13.824 120.085 13.824C119.691 13.824 119.381 13.952 119.157 14.208C118.933 14.4533 118.821 14.7893 118.821 15.216V20H115.269V10.976H118.821V12.352C119.099 11.9253 119.467 11.5787 119.925 11.312C120.395 11.0453 120.949 10.912 121.589 10.912ZM125.946 15.488C125.946 14.5387 126.106 13.7173 126.426 13.024C126.756 12.32 127.204 11.7867 127.77 11.424C128.335 11.0507 128.97 10.864 129.674 10.864C130.26 10.864 130.762 10.9867 131.178 11.232C131.604 11.4667 131.93 11.792 132.154 12.208V8.16H135.706V20H132.154V18.768C131.93 19.184 131.604 19.5147 131.178 19.76C130.762 19.9947 130.26 20.112 129.674 20.112C128.97 20.112 128.335 19.9307 127.77 19.568C127.204 19.1947 126.756 18.6613 126.426 17.968C126.106 17.264 125.946 16.4373 125.946 15.488ZM132.17 15.488C132.17 15.008 132.047 14.6347 131.802 14.368C131.556 14.1013 131.242 13.968 130.858 13.968C130.474 13.968 130.159 14.1013 129.914 14.368C129.668 14.6347 129.546 15.008 129.546 15.488C129.546 15.968 129.668 16.3413 129.914 16.608C130.159 16.8747 130.474 17.008 130.858 17.008C131.242 17.008 131.556 16.8747 131.802 16.608C132.047 16.3413 132.17 15.968 132.17 15.488ZM145.539 20.112C144.473 20.112 143.491 19.8613 142.595 19.36C141.71 18.8587 141.006 18.1653 140.483 17.28C139.961 16.3947 139.699 15.3973 139.699 14.288C139.699 13.1787 139.961 12.1813 140.483 11.296C141.006 10.4107 141.71 9.72267 142.595 9.232C143.491 8.73067 144.473 8.48 145.539 8.48C146.606 8.48 147.582 8.73067 148.467 9.232C149.353 9.72267 150.051 10.4107 150.563 11.296C151.086 12.1813 151.347 13.1787 151.347 14.288C151.347 15.3973 151.086 16.3947 150.563 17.28C150.051 18.1653 149.347 18.8587 148.451 19.36C147.566 19.8613 146.595 20.112 145.539 20.112ZM145.539 16.8C146.243 16.8 146.787 16.576 147.171 16.128C147.555 15.6693 147.747 15.056 147.747 14.288C147.747 13.5093 147.555 12.896 147.171 12.448C146.787 11.9893 146.243 11.76 145.539 11.76C144.825 11.76 144.275 11.9893 143.891 12.448C143.507 12.896 143.315 13.5093 143.315 14.288C143.315 15.056 143.507 15.6693 143.891 16.128C144.275 16.576 144.825 16.8 145.539 16.8ZM162.181 10.976V20H158.629V18.624C158.351 19.0507 157.978 19.3973 157.509 19.664C157.05 19.9307 156.501 20.064 155.861 20.064C154.826 20.064 154.015 19.7173 153.429 19.024C152.853 18.3307 152.565 17.392 152.565 16.208V10.976H156.101V15.76C156.101 16.1867 156.213 16.528 156.437 16.784C156.671 17.0293 156.981 17.152 157.365 17.152C157.759 17.152 158.069 17.0293 158.293 16.784C158.517 16.528 158.629 16.1867 158.629 15.76V10.976H162.181ZM169.401 16.976V20H168.057C165.582 20 164.345 18.768 164.345 16.304V13.936H163.225V10.976H164.345V8.8H167.897V10.976H169.369V13.936H167.897V16.368C167.897 16.5813 167.945 16.736 168.041 16.832C168.148 16.928 168.318 16.976 168.553 16.976H169.401Z" fill="white"/>
<path d="M179.725 0H193L224.5 34H211L198.465 20.5L179.725 0Z" fill="#533C56"/>
<path d="M198 0H211.275L242.775 34H229.275L216.74 20.5L198 0Z" fill="#533C56"/>
<path d="M216 0H229.275L260.775 34H247.275L234.74 20.5L216 0Z" fill="#533C56"/>
</svg>
