<svg width="246" height="34" viewBox="0 0 246 34" fill="none" xmlns="http://www.w3.org/2000/svg">
<path d="M0 0H146.172L176.087 34H0V0Z" fill="#533C56"/>
<path d="M30.9068 8.672L28.3148 20H23.8988L22.5868 13.568L21.2748 20H16.8588L14.2668 8.672H18.0908L19.1148 15.808L20.6508 8.672H24.5228L26.0588 15.808L27.0828 8.672H30.9068ZM38.5006 10.912C39.5352 10.912 40.3406 11.2587 40.9166 11.952C41.5032 12.6453 41.7966 13.584 41.7966 14.768V20H38.2606V15.216C38.2606 14.7893 38.1432 14.4533 37.9086 14.208C37.6846 13.952 37.3806 13.824 36.9966 13.824C36.6019 13.824 36.2926 13.952 36.0686 14.208C35.8446 14.4533 35.7326 14.7893 35.7326 15.216V20H32.1806V8.16H35.7326V12.352C36.0099 11.9253 36.3779 11.5787 36.8366 11.312C37.3059 11.0453 37.8606 10.912 38.5006 10.912ZM53.5288 10.976L47.7528 24.32H43.8648L46.1368 19.552L42.3768 10.976H46.3288L48.0248 15.552L49.6088 10.976H53.5288ZM56.5637 14.32C56.5637 13.2 56.7877 12.2027 57.2357 11.328C57.6944 10.4533 58.345 9.776 59.1877 9.296C60.0304 8.80533 61.0224 8.56 62.1637 8.56C63.145 8.56 64.0197 8.74667 64.7877 9.12C65.5664 9.48267 66.1957 10 66.6757 10.672C67.1664 11.344 67.4917 12.128 67.6517 13.024H63.9077C63.737 12.6507 63.4917 12.3627 63.1717 12.16C62.8624 11.9467 62.505 11.84 62.0997 11.84C61.5024 11.84 61.0277 12.064 60.6757 12.512C60.3344 12.96 60.1637 13.5627 60.1637 14.32C60.1637 15.0773 60.3344 15.68 60.6757 16.128C61.0277 16.576 61.5024 16.8 62.0997 16.8C62.505 16.8 62.8624 16.6987 63.1717 16.496C63.4917 16.2827 63.737 15.9893 63.9077 15.616H67.6517C67.4917 16.512 67.1664 17.296 66.6757 17.968C66.1957 18.64 65.5664 19.1627 64.7877 19.536C64.0197 19.8987 63.145 20.08 62.1637 20.08C61.0224 20.08 60.0304 19.84 59.1877 19.36C58.345 18.8693 57.6944 18.1867 57.2357 17.312C56.7877 16.4373 56.5637 15.44 56.5637 14.32ZM75.2506 10.912C76.2852 10.912 77.0906 11.2587 77.6666 11.952C78.2532 12.6453 78.5466 13.584 78.5466 14.768V20H75.0106V15.216C75.0106 14.7893 74.8932 14.4533 74.6586 14.208C74.4346 13.952 74.1306 13.824 73.7466 13.824C73.3519 13.824 73.0426 13.952 72.8186 14.208C72.5946 14.4533 72.4826 14.7893 72.4826 15.216V20H68.9306V8.16H72.4826V12.352C72.7599 11.9253 73.1279 11.5787 73.5866 11.312C74.0559 11.0453 74.6106 10.912 75.2506 10.912ZM84.3748 20.112C83.4681 20.112 82.6521 19.9253 81.9268 19.552C81.2015 19.1787 80.6308 18.6453 80.2148 17.952C79.8095 17.248 79.6068 16.4267 79.6068 15.488C79.6068 14.5493 79.8095 13.7333 80.2148 13.04C80.6308 12.336 81.2015 11.7973 81.9268 11.424C82.6521 11.0507 83.4681 10.864 84.3748 10.864C85.2815 10.864 86.0975 11.0507 86.8228 11.424C87.5481 11.7973 88.1135 12.336 88.5188 13.04C88.9348 13.7333 89.1428 14.5493 89.1428 15.488C89.1428 16.4267 88.9348 17.248 88.5188 17.952C88.1135 18.6453 87.5481 19.1787 86.8228 19.552C86.0975 19.9253 85.2815 20.112 84.3748 20.112ZM84.3748 17.04C84.7055 17.04 84.9828 16.912 85.2068 16.656C85.4308 16.3893 85.5428 16 85.5428 15.488C85.5428 14.976 85.4308 14.592 85.2068 14.336C84.9828 14.0693 84.7055 13.936 84.3748 13.936C84.0441 13.936 83.7668 14.0693 83.5428 14.336C83.3188 14.592 83.2068 14.976 83.2068 15.488C83.2068 16 83.3135 16.3893 83.5268 16.656C83.7508 16.912 84.0335 17.04 84.3748 17.04ZM94.5467 20.112C93.64 20.112 92.824 19.9253 92.0987 19.552C91.3734 19.1787 90.8027 18.6453 90.3867 17.952C89.9814 17.248 89.7787 16.4267 89.7787 15.488C89.7787 14.5493 89.9814 13.7333 90.3867 13.04C90.8027 12.336 91.3734 11.7973 92.0987 11.424C92.824 11.0507 93.64 10.864 94.5467 10.864C95.4534 10.864 96.2694 11.0507 96.9947 11.424C97.72 11.7973 98.2854 12.336 98.6907 13.04C99.1067 13.7333 99.3147 14.5493 99.3147 15.488C99.3147 16.4267 99.1067 17.248 98.6907 17.952C98.2854 18.6453 97.72 19.1787 96.9947 19.552C96.2694 19.9253 95.4534 20.112 94.5467 20.112ZM94.5467 17.04C94.8774 17.04 95.1547 16.912 95.3787 16.656C95.6027 16.3893 95.7147 16 95.7147 15.488C95.7147 14.976 95.6027 14.592 95.3787 14.336C95.1547 14.0693 94.8774 13.936 94.5467 13.936C94.216 13.936 93.9387 14.0693 93.7147 14.336C93.4907 14.592 93.3787 14.976 93.3787 15.488C93.3787 16 93.4854 16.3893 93.6987 16.656C93.9227 16.912 94.2054 17.04 94.5467 17.04ZM104.447 20.112C103.593 20.112 102.836 19.9733 102.175 19.696C101.524 19.4187 101.007 19.0347 100.623 18.544C100.239 18.0533 100.02 17.4987 99.9666 16.88H103.375C103.417 17.1467 103.529 17.344 103.711 17.472C103.903 17.6 104.143 17.664 104.431 17.664C104.612 17.664 104.756 17.6267 104.863 17.552C104.969 17.4667 105.023 17.3653 105.023 17.248C105.023 17.0453 104.911 16.9013 104.687 16.816C104.463 16.7307 104.084 16.6347 103.551 16.528C102.9 16.4 102.361 16.2613 101.935 16.112C101.519 15.9627 101.151 15.7067 100.831 15.344C100.521 14.9813 100.367 14.48 100.367 13.84C100.367 13.2853 100.511 12.784 100.799 12.336C101.097 11.8773 101.535 11.52 102.111 11.264C102.687 10.9973 103.385 10.864 104.207 10.864C105.423 10.864 106.372 11.1627 107.055 11.76C107.748 12.3573 108.164 13.136 108.303 14.096H105.151C105.097 13.8507 104.985 13.664 104.815 13.536C104.644 13.3973 104.415 13.328 104.127 13.328C103.945 13.328 103.807 13.3653 103.711 13.44C103.615 13.504 103.567 13.6053 103.567 13.744C103.567 13.9253 103.679 14.064 103.903 14.16C104.127 14.2453 104.484 14.336 104.975 14.432C105.625 14.56 106.175 14.704 106.623 14.864C107.071 15.024 107.46 15.3013 107.791 15.696C108.121 16.08 108.287 16.6133 108.287 17.296C108.287 17.8293 108.132 18.3093 107.823 18.736C107.513 19.1627 107.065 19.4987 106.479 19.744C105.903 19.9893 105.225 20.112 104.447 20.112ZM118.432 15.408C118.432 15.6533 118.416 15.888 118.384 16.112H112.672C112.726 16.8907 113.051 17.28 113.648 17.28C114.032 17.28 114.31 17.104 114.48 16.752H118.24C118.112 17.392 117.84 17.968 117.424 18.48C117.019 18.9813 116.502 19.3813 115.872 19.68C115.254 19.968 114.571 20.112 113.824 20.112C112.928 20.112 112.128 19.9253 111.424 19.552C110.731 19.1787 110.187 18.6453 109.792 17.952C109.408 17.248 109.216 16.4267 109.216 15.488C109.216 14.5493 109.408 13.7333 109.792 13.04C110.187 12.336 110.731 11.7973 111.424 11.424C112.128 11.0507 112.928 10.864 113.824 10.864C114.72 10.864 115.515 11.0507 116.208 11.424C116.912 11.7867 117.456 12.3093 117.84 12.992C118.235 13.6747 118.432 14.48 118.432 15.408ZM114.832 14.56C114.832 14.2613 114.736 14.0373 114.544 13.888C114.352 13.728 114.112 13.648 113.824 13.648C113.195 13.648 112.827 13.952 112.72 14.56H114.832ZM125.746 8.672V15.056C125.746 15.5787 125.858 15.9947 126.082 16.304C126.317 16.6027 126.69 16.752 127.202 16.752C127.714 16.752 128.093 16.6027 128.338 16.304C128.584 15.9947 128.706 15.5787 128.706 15.056V8.672H132.242V15.056C132.242 16.1333 132.018 17.056 131.57 17.824C131.122 18.5813 130.509 19.152 129.73 19.536C128.952 19.92 128.082 20.112 127.122 20.112C126.162 20.112 125.309 19.92 124.562 19.536C123.826 19.152 123.25 18.5813 122.834 17.824C122.418 17.0667 122.21 16.144 122.21 15.056V8.672H125.746ZM137.79 20.112C136.937 20.112 136.18 19.9733 135.518 19.696C134.868 19.4187 134.35 19.0347 133.966 18.544C133.582 18.0533 133.364 17.4987 133.31 16.88H136.718C136.761 17.1467 136.873 17.344 137.054 17.472C137.246 17.6 137.486 17.664 137.774 17.664C137.956 17.664 138.1 17.6267 138.206 17.552C138.313 17.4667 138.366 17.3653 138.366 17.248C138.366 17.0453 138.254 16.9013 138.03 16.816C137.806 16.7307 137.428 16.6347 136.894 16.528C136.244 16.4 135.705 16.2613 135.278 16.112C134.862 15.9627 134.494 15.7067 134.174 15.344C133.865 14.9813 133.71 14.48 133.71 13.84C133.71 13.2853 133.854 12.784 134.142 12.336C134.441 11.8773 134.878 11.52 135.454 11.264C136.03 10.9973 136.729 10.864 137.55 10.864C138.766 10.864 139.716 11.1627 140.398 11.76C141.092 12.3573 141.508 13.136 141.646 14.096H138.494C138.441 13.8507 138.329 13.664 138.158 13.536C137.988 13.3973 137.758 13.328 137.47 13.328C137.289 13.328 137.15 13.3653 137.054 13.44C136.958 13.504 136.91 13.6053 136.91 13.744C136.91 13.9253 137.022 14.064 137.246 14.16C137.47 14.2453 137.828 14.336 138.318 14.432C138.969 14.56 139.518 14.704 139.966 14.864C140.414 15.024 140.804 15.3013 141.134 15.696C141.465 16.08 141.63 16.6133 141.63 17.296C141.63 17.8293 141.476 18.3093 141.166 18.736C140.857 19.1627 140.409 19.4987 139.822 19.744C139.246 19.9893 138.569 20.112 137.79 20.112Z" fill="white"/>
<path d="M154.808 0H170.445L199.68 34H184.629L169.719 17L154.808 0Z" fill="#533C56"/>
<path d="M177.968 0H193.605L222.84 34H207.79L177.968 0Z" fill="#533C56"/>
<path d="M201.128 0H216.765L246 34H230.95L201.128 0Z" fill="#533C56"/>
</svg>
